# xmcd
# Track frame offsets:
# 150
# 17648
# 34414
# 51292
# 69577
# 85831
# 108637
# 124059
# 136099
# 152423
# 171868
# 192723
# 211144
# 228165
# 248442
# 268768
# 285054
# 299138
#
# Disc length: 4224 seconds
# Revision: 0
# Processed by: cddbd v1.5.2PL0 Copyright (c) Steve Scherf et al.
# Submitted via: VisiTrax 2.10.0.248 - For more info visit www.synapsa.com
#
DISCID=01107e12
DTITLE=Various Artist - Lauren and Paul's Wedding
DYEAR=2007
DGENRE=Country
TTITLE0=Josh Turner - Will You Go With Me
TTITLE1=Pat Green - Take Me Out to a Dancehall
TTITLE2=Keith Whitley - When You Say Nothing at All
TTITLE3=Reckless Kelly - Stick Around
TTITLE4=Cory Morrow - Always and Forever
TTITLE5=Brandon Rhyder - Freeze Frame Time
TTITLE6=Stoney LaRue - Feet Don't Touch the Ground
TTITLE7=Johnny Cash - Ring of  Fire
TTITLE8=Randy Travis - Forever and Ever, Amen
TTITLE9=Jack Ingram - One Thing
TTITLE10=Wade Bowen - Who I Am
TTITLE11=Paul Eason - One More Dance
TTITLE12=Cory Morrow - Beat of Your Heart
TTITLE13=Aaron Watson - Shut Up and Dance
TTITLE14=Brad Paisley - She's Everything
TTITLE15=Paul Brunnner - When You Say Nothing at All
TTITLE16=Paul Brunnner - Dairy Queen
TTITLE17=Paul Brunnner - Dance of Our Life, The
EXTD=June 9, 2007\nSubmitted by Larry@YourTexasMusic.com
EXTT0=
EXTT1=
EXTT2=
EXTT3=
EXTT4=
EXTT5=
EXTT6=
EXTT7=
EXTT8=
EXTT9=
EXTT10=
EXTT11=
EXTT12=
EXTT13=
EXTT14=
EXTT15=
EXTT16=
EXTT17=
PLAYORDER=
